<<<<<<< HEAD
<svg xmlns="http://www.w3.org/2000/svg" width="336" height="336" viewBox="90 93 336 336" fill="none" role="img" aria-label="7 Minuten">
  <defs>
    <linearGradient id="g" x1="170" y1="372" x2="346" y2="150" gradientUnits="userSpaceOnUse">
      <stop offset="0" stop-color="#62d6c0"></stop>
      <stop offset="1" stop-color="#7f68ff"></stop>
    </linearGradient>
  </defs>
  <g stroke="url(#g)" stroke-width="66" stroke-linecap="round" stroke-linejoin="round">
    <path d="M170 150 H346 L232 372"></path>
    <path d="M346 150 V244"></path>
  </g>
=======
<svg xmlns="http://www.w3.org/2000/svg" viewBox="0 0 512 512">
  <defs>
    <linearGradient id="g" x1="128" y1="392" x2="384" y2="120" gradientUnits="userSpaceOnUse">
      <stop offset="0" stop-color="#62d6c0"/>
      <stop offset="1" stop-color="#7f68ff"/>
    </linearGradient>
    <filter id="shadow" x="-20%" y="-20%" width="140%" height="140%">
      <feDropShadow dx="0" dy="22" stdDeviation="24" flood-color="#0e1120" flood-opacity="0.24"/>
    </filter>
  </defs>
  <rect width="512" height="512" rx="128" fill="#f5f6fb"/>
  <path d="M104 140h304c20 0 36 16 36 36v160c0 20-16 36-36 36H104c-20 0-36-16-36-36V176c0-20 16-36 36-36Z" fill="#ffffff" opacity="0.56"/>
  <path filter="url(#shadow)" d="M154 146h208c22 0 40 18 40 40 0 14-7 26-17 33L247 384c-14 17-39 19-56 5s-19-39-5-56l104-125H154c-17 0-31-14-31-31s14-31 31-31Z" fill="url(#g)"/>
  <path d="M304 146h98v98" fill="none" stroke="#7f68ff" stroke-width="44" stroke-linecap="round" stroke-linejoin="round"/>
  <path d="M402 146 300 248" fill="none" stroke="#7f68ff" stroke-width="44" stroke-linecap="round"/>
>>>>>>> 3c74398a02bde7d5c1d2b9f42b7cc71d517c0e83
</svg>